# xmcd CD database file
#
# Track frame offsets:
#	150
#	5856
#	13730
#	19012
#	25787
#	32871
#	40619
#	47268
#
# Disc length: 683 seconds
#
# Revision: 1
# Processed by: cddbd v1.5.2PL0 Copyright (c) Steve Scherf et al.
# Submitted via: CDex 1.70beta2
#
DISCID=5302a908
DTITLE=ザ・CD - 日本の童謡傑作選　第1巻
DYEAR=1900
DGENRE=Country
TTITLE0=むすんでひらいて
TTITLE1=海
TTITLE2=月
TTITLE3=案山子
TTITLE4=村祭り
TTITLE5=冬景色
TTITLE6=人形
TTITLE7=子馬
EXTD=
EXTT0=
EXTT1=
EXTT2=
EXTT3=
EXTT4=
EXTT5=
EXTT6=
EXTT7=
PLAYORDER=
